Coordinates
version=1
nRows=35
nColumns=38
inDegrees=no

Units are S.I. units (second, meters, Newtons, ...)
If the header above contains a line with 'inDegrees', this indicates whether rotational values are in degrees (yes) or radians (no).

endheader
time	pelvis_tilt	pelvis_list	pelvis_rotation	pelvis_tx	pelvis_ty	pelvis_tz	hip_flexion_r	hip_adduction_r	hip_rotation_r	knee_angle_r	ankle_angle_r	subtalar_angle_r	mtp_angle_r	hip_flexion_l	hip_adduction_l	hip_rotation_l	knee_angle_l	ankle_angle_l	subtalar_angle_l	mtp_angle_l	lumbar_extension	lumbar_bending	lumbar_rotation	arm_flex_r	arm_add_r	arm_rot_r	elbow_flex_r	pro_sup_r	wrist_flex_r	wrist_dev_r	arm_flex_l	arm_add_l	arm_rot_l	elbow_flex_l	pro_sup_l	wrist_flex_l	wrist_dev_l
0	-0.493308	1.39144	-1.19735	0.780896	1.44149	0.977727	-0.0239818	0.131481	-0.128261	0.391498	0.176271	0	0	0.168802	-0.158975	-0.0388735	0.872952	0.523599	0	0	-0.232924	0.133021	0.121314	0.260711	-0.419627	0.0852883	1.17313	0.983168	0	0	0.211478	-0.365352	0.0365792	1.22167	0.892427	0	0
0.01	-0.493219	1.38387	-1.20272	0.781141	1.43047	0.979529	-0.0690772	0.147329	-0.0575145	0.337873	0.156842	0	0	0.171036	-0.164143	-0.0368251	0.8266	0.523599	0	0	-0.243254	0.13591	0.126162	0.264676	-0.422728	0.0870686	1.17351	0.984054	0	0	0.21316	-0.360629	0.033945	1.21675	0.89599	0	0
0.02	-0.466585	1.38509	-1.23593	0.781007	1.41892	0.980187	-0.085696	0.139474	-0.0504321	0.333764	0.164187	0	0	0.176702	-0.160097	-0.0352774	0.775532	0.523599	0	0	-0.244379	0.128824	0.130579	0.265286	-0.422809	0.0880638	1.17331	0.982763	0	0	0.212566	-0.359566	0.0325278	1.21384	0.90048	0	0
0.03	-0.443334	1.38647	-1.26501	0.780931	1.40722	0.980649	-0.101626	0.131837	-0.0451414	0.329951	0.171794	0	0	0.180949	-0.156847	-0.0342975	0.721049	0.523599	0	0	-0.244627	0.122392	0.134061	0.265436	-0.422607	0.0883848	1.17354	0.982847	0	0	0.211242	-0.358433	0.0306443	1.21184	0.897633	0	0
0.04	-0.426761	1.38807	-1.28695	0.780926	1.39546	0.980864	-0.116312	0.125239	-0.040099	0.327101	0.179036	0	0	0.184188	-0.154666	-0.0323092	0.663426	0.523599	0	0	-0.244114	0.117333	0.136943	0.265737	-0.42217	0.0882651	1.17382	0.98444	0	0	0.209494	-0.357145	0.0280616	1.21031	0.895053	0	0
0.05	-0.419628	1.39009	-1.29894	0.781024	1.38366	0.980782	-0.129326	0.120215	-0.0352829	0.325576	0.186301	0	0	0.186794	-0.153755	-0.0283611	0.602599	0.523599	0	0	-0.242478	0.114132	0.139907	0.265481	-0.422057	0.0873434	1.17451	0.986795	0	0	0.208031	-0.355481	0.0255987	1.20863	0.895348	0	0
0.06	-0.400928	1.40509	-1.32581	0.780649	1.37185	0.978878	-0.103588	0.0955348	-0.0915503	0.380328	0.222651	0	0	0.201368	-0.14754	-0.0240162	0.541329	0.523599	0	0	-0.226652	0.103831	0.145246	0.262354	-0.419877	0.0850444	1.17484	0.990559	0	0	0.204867	-0.356873	0.0249436	1.20909	0.895347	0	0
0.07	-0.418521	1.40794	-1.31208	0.780929	1.35984	0.978198	-0.114847	0.0950189	-0.0862943	0.377932	0.229372	0	0	0.202796	-0.15042	-0.0162813	0.473905	0.523599	0	0	-0.222544	0.105303	0.147845	0.261623	-0.42077	0.0853404	1.17565	0.989999	0	0	0.202518	-0.35531	0.0224749	1.20876	0.898633	0	0
0.08	-0.471816	1.39846	-1.25814	0.781846	1.34748	0.978687	-0.164383	0.118405	-0.0188209	0.316127	0.20534	0	0	0.192103	-0.162578	-0.00788211	0.402303	0.523599	0	0	-0.2296	0.118514	0.147383	0.263096	-0.424594	0.0870905	1.17694	0.990444	0	0	0.200841	-0.35099	0.0191577	1.20797	0.901204	0	0
0.09	-0.515531	1.40124	-1.21719	0.782244	1.33502	0.977354	-0.176645	0.122177	-0.0133499	0.309308	0.210385	0	0	0.193747	-0.170053	-0.00252197	0.332694	0.523599	0	0	-0.222623	0.124445	0.149097	0.261948	-0.426472	0.0878431	1.17786	0.992936	0	0	0.197278	-0.349742	0.0176161	1.2097	0.902968	0	0
0.1	-0.570844	1.40464	-1.16433	0.782662	1.32232	0.975645	-0.188223	0.127097	-0.00827752	0.301255	0.215491	0	0	0.197021	-0.178964	-0.000801838	0.264338	0.523599	0	0	-0.213258	0.13165	0.150531	0.26001	-0.428793	0.0898619	1.17874	0.99205	0	0	0.193331	-0.348359	0.016384	1.21154	0.903447	0	0
0.11	-0.632266	1.40762	-1.10484	0.783139	1.30939	0.973676	-0.200507	0.13241	-0.00384655	0.291558	0.220554	0	0	0.200833	-0.188148	-0.0044474	0.197838	0.523599	0	0	-0.202935	0.139497	0.151519	0.257327	-0.431367	0.0923617	1.17988	0.989192	0	0	0.189358	-0.346837	0.0154397	1.21337	0.902909	0	0
0.12	-0.695889	1.4095	-1.04277	0.783671	1.29631	0.971553	-0.213951	0.137759	-5.04701e-06	0.280788	0.225183	0	0	0.204531	-0.196973	-0.0126814	0.13451	0.523599	0	0	-0.192824	0.147755	0.1523	0.254275	-0.434037	0.0942059	1.18161	0.98672	0	0	0.185602	-0.345058	0.0136703	1.21505	0.901812	0	0
0.13	-0.761963	1.41006	-0.978301	0.784252	1.28301	0.969272	-0.228163	0.143288	0.00365591	0.270123	0.229363	0	0	0.206937	-0.205435	-0.0271664	0.0719709	0.523599	0	0	-0.18278	0.156855	0.153067	0.250925	-0.436981	0.0960019	1.18376	0.98469	0	0	0.181708	-0.343054	0.0116944	1.21659	0.900994	0	0
0.14	-0.818617	1.4084	-0.922354	0.784954	1.26958	0.967057	-0.244556	0.148324	0.00616951	0.259915	0.232833	0	0	0.224196	-0.213345	-0.0875517	0.0477386	0.523599	0	0	-0.175074	0.165736	0.153045	0.24789	-0.439835	0.0974169	1.18628	0.982879	0	0	0.178415	-0.341571	0.0105565	1.21831	0.900575	0	0
0.15	-0.864185	1.4082	-0.884381	0.78559	1.2572	0.964764	-0.256741	0.150116	0.0131124	0.254952	0.236629	0	0	0.226689	-0.209916	-0.0727417	0	0.523599	0	0	-0.170422	0.171979	0.158195	0.247602	-0.44274	0.10038	1.18904	0.9797	0	0	0.175664	-0.339705	0.00912299	1.21916	0.901419	0	0
0.16	-0.896008	1.40537	-0.850136	0.786768	1.24423	0.962358	-0.272534	0.152478	0.0130899	0.252651	0.242856	0	0	0.243478	-0.214178	-0.0864064	0	0.523599	0	0	-0.164269	0.177985	0.154972	0.245866	-0.44357	0.101683	1.18831	0.973708	0	0	0.173713	-0.338186	0.00730968	1.21925	0.904973	0	0
0.17	-0.903746	1.42961	-0.841378	0.787277	1.2347	0.959316	-0.217694	0.124515	-0.0584694	0.349203	0.291774	0	0	0.270091	-0.201844	0.0110975	0	0.179364	0	0	-0.150675	0.15623	0.153334	0.252245	-0.433572	0.0959921	1.17726	0.979029	0	0	0.182615	-0.341535	0.00840828	1.21627	0.904525	0	0
0.18	-0.94013	1.43847	-0.782466	0.789983	1.22748	0.957446	-0.207657	0.125428	-0.0566987	0.363817	0.294491	0	0	0.30054	-0.19984	0.187903	0	-0.262734	0	0	-0.152495	0.149945	0.134785	0.267835	-0.427581	0.0907911	1.1656	0.98526	0	0	0.204229	-0.342156	0.0113149	1.21245	0.905819	0	0
0.19	-1.0434	1.42834	-0.629734	0.795782	1.21975	0.955601	-0.23959	0.159225	-0.0149598	0.299076	0.267147	0	0	0.341899	-0.203415	0.410122	0	-0.698132	0	0	-0.156115	0.171281	0.0925372	0.285578	-0.42619	0.0818109	1.1529	0.993662	0	0	0.228449	-0.337315	0.0149694	1.20598	0.909684	0	0
0.2	-1.51464	1.41867	-0.103847	0.80342	1.20702	0.946484	-0.176117	0.199871	-0.0564205	0.317876	0.276481	0	0	0.436732	-0.211677	0.590098	0	-0.698132	0	0	-0.0722546	0.218663	0.0311567	0.280364	-0.432176	0.0734411	1.1502	1.01906	0	0	0.219807	-0.325482	0.0108894	1.19779	0.923948	0	0
0.21	-1.5154	1.4185	-0.116758	0.803479	1.19351	0.944463	-0.184823	0.193612	-0.0439102	0.335714	0.28281	0	0	0.429774	-0.216038	0.629471	0	-0.694763	0	0	-0.0721492	0.215967	0.0443627	0.280362	-0.429684	0.0721756	1.14398	1.02116	0	0	0.22068	-0.325308	0.0122754	1.19564	0.9255	0	0
0.22	-1.45889	1.42255	-0.1855	0.803278	1.17847	0.943263	-0.203148	0.180334	-0.0392707	0.353051	0.288661	0	0	0.410815	-0.213224	0.651901	0	-0.694461	0	0	-0.0778016	0.206819	0.0553307	0.277281	-0.424987	0.0699863	1.13972	1.02531	0	0	0.21974	-0.326815	0.0132175	1.19256	0.926198	0	0
0.23	-1.45527	1.43851	-0.197484	0.803782	1.16385	0.940424	-0.184931	0.144484	-0.0944502	0.42575	0.315997	0	0	0.402841	-0.195639	0.656069	0	-0.696736	0	0	-0.0709394	0.185386	0.0620631	0.272225	-0.419732	0.0642888	1.13626	1.03822	0	0	0.220013	-0.330862	0.0170092	1.19222	0.924408	0	0
0.24	-1.26154	1.44828	-0.40251	0.803272	1.14796	0.940566	-0.217228	0.119207	-0.085158	0.443305	0.316829	0	0	0.366238	-0.173139	0.571699	0	-0.698132	0	0	-0.0912072	0.161773	0.0728341	0.271486	-0.413863	0.0616606	1.13175	1.04037	0	0	0.22352	-0.33482	0.0183817	1.19104	0.924315	0	0
0.25	-1.11501	1.45514	-0.565143	0.803962	1.13196	0.939442	-0.234743	0.090089	-0.0883678	0.472707	0.323947	0	0	0.33025	-0.162973	0.636641	0	-0.698132	0	0	-0.0993155	0.143854	0.0854045	0.268393	-0.408901	0.0606991	1.12758	1.04554	0	0	0.218529	-0.337337	0.0181083	1.19141	0.92248	0	0
0.26	-0.877718	1.47075	-0.829725	0.803358	1.11471	0.938299	-0.235498	0.0433986	-0.0856719	0.534368	0.336649	0	0	0.29647	-0.132771	0.553441	0	-0.698132	0	0	-0.102342	0.108352	0.106589	0.262653	-0.401715	0.0621879	1.12332	1.04241	0	0	0.210825	-0.342869	0.015982	1.19248	0.923915	0	0
0.27	-0.759998	1.44718	-0.956636	0.80399	1.09924	0.938902	-0.295494	0.0493357	-0.0256216	0.49881	0.310688	0	0	0.246413	-0.135845	0.591343	0	-0.698132	0	0	-0.128966	0.111028	0.114206	0.266847	-0.400939	0.0629097	1.11838	1.04126	0	0	0.212153	-0.342588	0.0153425	1.19261	0.927235	0	0
0.28	-0.606079	1.43957	-1.131	0.802769	1.08256	0.938006	-0.310741	0.0188794	-0.0232859	0.537769	0.305702	0	0	0.213742	-0.1171	0.513821	0	-0.698132	0	0	-0.140779	0.0916016	0.128252	0.267273	-0.395046	0.0642716	1.11458	1.04137	0	0	0.207679	-0.347723	0.0124817	1.19604	0.929362	0	0
0.29	-0.641156	1.44272	-1.10084	0.805431	1.06871	0.934138	-0.290366	0.00878086	-0.0180053	0.595031	0.297207	0	0	0.210089	-0.118706	0.615097	0	-0.69794	0	0	-0.135175	0.0947802	0.128211	0.274267	-0.395571	0.0655568	1.11076	1.04196	0	0	0.207772	-0.346694	0.01092	1.20005	0.929162	0	0
0.3	-0.644	1.46927	-1.10982	0.806488	1.0537	0.928735	-0.231089	-0.0364339	-0.0724472	0.692095	0.297085	0	0	0.228876	-0.109511	0.690789	0	-0.694773	0	0	-0.101236	0.0795458	0.1305	0.270227	-0.384634	0.0634799	1.10568	1.04233	0	0	0.196645	-0.351747	0.00601568	1.2034	0.922607	0	0
0.31	-0.482008	1.48111	-1.2757	0.809207	1.04069	0.926956	-0.203575	-0.0672972	-0.0564722	0.754954	0.267032	0	0	0.231638	-0.0872007	0.69057	0	-0.694713	0	0	-0.099265	0.057144	0.129855	0.275615	-0.379873	0.0587317	1.10404	1.04116	0	0	0.202099	-0.352472	0.00712479	1.20439	0.913595	0	0
0.32	-0.247221	1.46781	-1.52529	0.809514	1.02695	0.929399	-0.209009	-0.083336	0.00956686	0.790082	0.22804	0	0	0.201886	-0.0682533	0.687078	0	-0.696824	0	0	-0.121022	0.0308678	0.141088	0.280298	-0.372419	0.0557489	1.10149	1.04103	0	0	0.210268	-0.354416	0.00829646	1.19682	0.913044	0	0
0.33	0.201846	1.471	-1.99098	0.80949	1.01361	0.9286	-0.150905	-0.147001	0.0162108	0.889792	0.191152	0	0	0.202139	-0.023306	0.672606	0	-0.698132	0	0	-0.108743	-0.0235885	0.154958	0.279471	-0.3631	0.0521675	1.09921	1.0513	0	0	0.21648	-0.367597	0.0214321	1.19449	0.90979	0	0
0.34	0.337501	1.44771	-2.1335	0.809515	0.999641	0.93119	-0.149721	-0.188044	0.029452	0.92541	0.151863	0	0	0.170041	-0.00575467	0.640065	0	-0.698132	0	0	-0.124621	-0.0546707	0.160787	0.282283	-0.360553	0.0537081	1.09618	1.06208	0	0	0.225025	-0.376154	0.0332478	1.18973	0.90685	0	0
